<?xml version="1.0" encoding="UTF-8" standalone="no"?>
<!-- Created with Inkscape (http://www.inkscape.org/) -->

<svg
   xmlns:dc="http://purl.org/dc/elements/1.1/"
   xmlns:cc="http://creativecommons.org/ns#"
   xmlns:rdf="http://www.w3.org/1999/02/22-rdf-syntax-ns#"
   xmlns:svg="http://www.w3.org/2000/svg"
   xmlns="http://www.w3.org/2000/svg"
   xmlns:sodipodi="http://sodipodi.sourceforge.net/DTD/sodipodi-0.dtd"
   xmlns:inkscape="http://www.inkscape.org/namespaces/inkscape"
   width="305mm"
   height="67mm"
   viewBox="0 0 1080.7087 237.40143"
   id="svg2"
   version="1.1"
   inkscape:version="0.91 r13725"
   sodipodi:docname="4-uvas.svg">
  <defs
     id="defs4" />
  <sodipodi:namedview
     id="base"
     pagecolor="#ffffff"
     bordercolor="#666666"
     borderopacity="1.0"
     inkscape:pageopacity="0.0"
     inkscape:pageshadow="2"
     inkscape:zoom="0.49497475"
     inkscape:cx="166.35309"
     inkscape:cy="553.89891"
     inkscape:document-units="px"
     inkscape:current-layer="layer1"
     showgrid="false"
     inkscape:window-width="1600"
     inkscape:window-height="837"
     inkscape:window-x="-8"
     inkscape:window-y="-8"
     inkscape:window-maximized="1" />
  <metadata
     id="metadata7">
    <rdf:RDF>
      <cc:Work
         rdf:about="">
        <dc:format>image/svg+xml</dc:format>
        <dc:type
           rdf:resource="http://purl.org/dc/dcmitype/StillImage" />
        <dc:title />
      </cc:Work>
    </rdf:RDF>
  </metadata>
  <g
     inkscape:label="Capa 1"
     inkscape:groupmode="layer"
     id="layer1"
     transform="translate(0,-814.96122)">
    <path
       style="fill:#db0000;fill-opacity:1"
       d="m 27.064244,1048.0778 c -11.861212,-3.683 -18.9041522,-18.849 -14.096612,-30.3551 l 1.3834,-3.311 4.12473,1.8246 c 7.608612,3.3657 18.263642,3.898 25.013472,1.2497 1.25425,-0.4921 1.575,-0.1421 1.575,1.7187 0,3.5647 3.216332,11.2535 6.326562,15.1236 3.36901,4.1923 3.04208,5.8763 -1.90088,9.7912 -6.342132,5.023 -14.410132,6.4471 -22.425672,3.9582 z m 42.864734,-11.6385 c -8.845612,-3.1531 -15.264742,-12.4641 -15.264742,-22.1417 0,-6.0667 3.59579,-14.2967 7.5,-17.16584 2.1037,-1.54602 2.54259,-1.56322 6.750002,-0.26475 2.91622,0.9 7.15287,1.30449 12.03765,1.14928 l 7.537652,-0.2395 1.6795,4.50221 c 0.92372,2.4763 3.75431,7.0771 6.2902,10.2241 4.4582,5.5326 4.57799,5.8291 3.62173,8.9647 -3.8322,12.5658 -17.651232,19.4274 -30.151992,14.9715 z m 45.209472,-22.5897 c -8.4891,-2.6136 -15.91519,-11.8992 -17.5144,-21.90012 -1.01333,-6.33701 1.79127,-14.67217 6.73273,-20.00935 l 4.15744,-4.49037 4.05,1.55864 c 2.77395,1.06756 6.80976,1.58128 12.80901,1.63045 l 8.75902,0.0718 1.07589,2.59745 c 1.68047,4.05702 7.32217,11.11683 11.36975,14.22768 3.22935,2.48199 3.62112,3.16872 3.19577,5.60182 -0.89215,5.10322 -4.87251,12.1255 -8.86478,15.6397 -6.78114,5.969 -16.58822,7.8993 -25.77043,5.0723 z m -88.118706,-5.1948 c -15.435912,-4.2385 -22.2613546,-20.03569 -14.677342,-33.97002 3.96119,-7.27802 4.63362,-7.61858 11.41709,-5.78238 3.972982,1.07544 8.036112,1.4566 13.083642,1.22738 5.01289,-0.22765 7.3211,-0.0138 7.3211,0.67828 0,2.1566 6.354022,13.56758 8.928122,16.03373 l 2.71256,2.5988 -2.67705,3.04899 c -1.47238,1.67694 -3.86852,5.40928 -5.32476,8.29402 -2.127012,4.2136 -3.320412,5.5122 -6.068292,6.6032 -5.23454,2.0784 -10.20428,2.5067 -14.71507,1.268 z m 40.724304,-23.14637 c -8.544932,-4.26996 -13.305142,-11.25747 -14.311472,-21.00782 -0.97569,-9.45351 4.25871,-19.57249 12.881172,-24.90145 l 3.19742,-1.97612 4.23245,4.16881 c 4.59445,4.52537 6.02012,4.86534 11.82062,2.8188 4.616292,-1.62872 4.497862,-1.62281 4.508792,-0.225 0.0171,2.19006 4.29421,10.28801 7.15436,13.54553 l 2.89991,3.30282 -3.26203,3.81096 c -4.10121,4.79135 -7.44076,11.57347 -8.49585,17.25383 -0.44828,2.41347 -1.3641,4.73602 -2.03513,5.16121 -0.671032,0.4252 -3.889112,0.7793 -7.151312,0.78687 -4.83189,0.0112 -6.9521,-0.49635 -11.43893,-2.73844 z m 91.011982,-2.32156 c -5.10503,-1.80892 -11.40986,-7.55576 -13.87413,-12.64626 l -2.03307,-4.19978 2.1827,-1.3736 c 6.88285,-4.33147 13.08641,-13.40822 15.14645,-22.16154 l 1.0602,-4.50497 6.93802,0.005 c 3.81591,0.003 8.76718,-0.33058 11.00283,-0.7407 3.9716,-0.72857 4.15225,-0.65736 7.87788,3.10551 6.86691,6.93556 9.05694,17.02498 5.86325,27.01181 -2.03283,6.35676 -8.83975,13.35401 -15.04891,15.46968 -5.36527,1.82814 -14.00987,1.84391 -19.11522,0.0348 z m -42.16062,-23.54749 c -8.57178,-2.96396 -14.55016,-9.23716 -16.79235,-17.62046 l -1.10485,-4.13092 7.60801,-7.99557 c 4.1844,-4.39756 7.83729,-8.04871 8.11752,-8.11367 0.28023,-0.065 1.64379,2.25506 3.03012,5.1556 l 2.5206,5.27371 6.37469,-3.50403 c 3.50607,-1.92722 7.65205,-4.47833 9.21328,-5.66914 l 2.8386,-2.1651 2.6066,3.51736 c 1.43362,1.93455 4.32784,4.82027 6.43159,6.4127 4.39374,3.32584 4.69974,5.01034 2.28568,12.58245 -2.17744,6.8299 -9.83629,14.47774 -16.47202,16.44833 -6.15141,1.82678 -10.98168,1.77131 -16.65747,-0.19126 z M 24.711062,958.90521 C 13.285622,954.85316 6.0335016,940.59422 9.0348618,928.0831 l 1.0978202,-4.57622 3.23047,1.34977 c 8.48657,3.54592 17.699382,5.1961 29.451082,5.27523 6.435002,0.0433 13.016252,-0.21485 14.625002,-0.57372 4.26314,-0.95102 3.71484,0.53903 -2.34761,6.37976 -5.74818,5.53795 -9.507052,12.00788 -10.987902,18.91283 -0.72048,3.35949 -1.42542,4.55636 -2.91965,4.95707 -3.52201,0.9445 -12.67961,0.44273 -16.473012,-0.90261 z m 53.252596,-27.11955 c -2.4549,-3.72186 -4.96542,-13.10037 -4.98612,-18.62656 l -0.0133,-3.55154 -2.925,2.82782 c -1.60875,1.5553 -5.331712,3.92763 -8.273252,5.27184 -13.0618,5.96892 -39.852404,2.5539 -54.6978444,-6.9724 -5.0961226,-3.27017 -5.0893926,-3.57503 0.335,-15.17416 6.6273804,-14.17153 18.5622204,-27.20756 29.5611024,-32.28861 3.70628,-1.71216 6.47519,-2.29608 11.020332,-2.32405 3.33869,-0.0205 6.07244,-0.13765 6.075,-0.26026 0.003,-0.1226 -1.41123,-2.19373 -3.14177,-4.60251 -3.84056,-5.34578 -6.369942,-11.0096 -7.195202,-16.11159 -0.61261,-3.78732 -0.57662,-3.85542 2.778012,-5.25708 4.80852,-2.00912 15.06885,-2.58154 23.686642,-1.32145 6.61537,0.96729 18.254252,3.65398 21.915362,5.05888 1.10874,0.42546 0.78532,-1.41722 -1.55994,-8.88777 l -2.95867,-9.42451 2.70262,-0.54053 c 17.00854,-3.40171 41.54617,10.0151 55.41915,30.30238 3.3112,4.84216 4.21204,12.89541 2.82832,25.28417 -1.59934,14.31929 -5.7513,25.57133 -12.47188,33.79955 -3.1788,3.8919 -9.49234,9.07338 -11.05576,9.07338 -0.43322,0 -2.19215,-3.08191 -3.90872,-6.84869 -2.39524,-5.25599 -3.45356,-6.72108 -4.55089,-6.3 -0.78641,0.30178 -1.7349,0.54869 -2.10775,0.54869 -0.37284,0 -3.33971,3.54375 -6.59302,7.875 -3.25332,4.33125 -7.67389,9.57153 -9.82349,11.64508 -4.46716,4.30912 -13.819952,10.17991 -16.217642,10.17991 -0.88835,0 -2.61693,-1.51874 -3.84129,-3.37499 z M 99.50233,871.75002 c 16.32846,-5.73642 30.21459,-10.95634 30.85807,-11.59982 1.54949,-1.5495 0.46245,-4.18954 -1.72505,-4.18954 -1.37795,0 -78.839344,29.24098 -79.767304,30.11144 -0.1354,0.12701 -10e-4,0.86949 0.29835,1.64995 0.61148,1.5935 -2.22944,2.49495 50.335934,-15.97203 z m 63.46189,56.32291 c -4.89311,-1.611 -9.72475,-4.65013 -12.79416,-8.04761 -4.49297,-4.97318 -4.81613,-6.59208 -2.15681,-10.80472 3.66106,-5.79948 6.97989,-14.51524 8.62858,-22.65994 1.54767,-7.64566 1.55054,-7.65069 5.06047,-8.85351 4.90476,-1.68082 15.138,-0.93587 19.71192,1.43497 18.96109,9.82825 19.00844,37.15193 0.081,46.75945 -4.88396,2.47909 -14.2596,3.57767 -18.53102,2.17136 z m -4.47467,-69.12753 0.0253,-6.13474 8.74967,-5.57466 c 4.81232,-3.06606 12.25314,-8.60399 16.53516,-12.30651 l 7.78548,-6.73185 5.11497,7.68606 c 2.81324,4.22733 4.77727,7.99532 4.36452,8.37332 -0.41271,0.37799 -4.80042,2.39204 -9.75042,4.47565 -4.95,2.08361 -14.36625,6.61418 -20.925,10.06793 l -11.925,6.27955 0.0253,-6.13475 z"
       id="path4147"
       inkscape:connector-curvature="0" />
    <path
       style="fill:#db0000;fill-opacity:1"
       d="m 245.97,1048.0778 c -11.86121,-3.683 -18.90414,-18.849 -14.0966,-30.3551 l 1.38339,-3.311 4.12473,1.8246 c 7.60861,3.3657 18.26364,3.898 25.01348,1.2497 1.25425,-0.4921 1.575,-0.1421 1.575,1.7187 0,3.5647 3.21633,11.2535 6.32656,15.1236 3.36901,4.1923 3.04208,5.8763 -1.90088,9.7912 -6.34213,5.023 -14.41014,6.4471 -22.42568,3.9582 z m 42.86474,-11.6385 c -8.84561,-3.1531 -15.26474,-12.4641 -15.26474,-22.1417 0,-6.0667 3.59579,-14.2967 7.5,-17.16585 2.1037,-1.54602 2.54259,-1.56322 6.75,-0.26475 2.91622,0.9 7.15287,1.30449 12.03765,1.14928 l 7.53765,-0.2395 1.6795,4.50222 c 0.92372,2.4763 3.75431,7.0771 6.2902,10.2241 4.45821,5.5326 4.578,5.8291 3.62174,8.9647 -3.83221,12.5658 -17.65124,19.4274 -30.152,14.9715 z m 45.20948,-22.5897 c -8.4891,-2.6136 -15.91519,-11.8992 -17.51441,-21.90013 -1.01333,-6.33701 1.79128,-14.67217 6.73274,-20.00935 l 4.15744,-4.49037 4.05,1.55864 c 2.77395,1.06756 6.80976,1.58128 12.80901,1.63045 l 8.75902,0.0718 1.07589,2.59745 c 1.68047,4.05702 7.32217,11.11683 11.36975,14.22768 3.22935,2.48199 3.62112,3.16872 3.19577,5.60182 -0.89215,5.10322 -4.87251,12.12551 -8.86478,15.63971 -6.78114,5.969 -16.58822,7.8993 -25.77043,5.0723 z m -88.11872,-5.1948 c -15.4359,-4.2385 -22.26135,-20.0357 -14.67733,-33.97003 3.96118,-7.27802 4.63361,-7.61858 11.41708,-5.78238 3.97298,1.07544 8.03611,1.4566 13.08364,1.22738 5.0129,-0.22765 7.32111,-0.0138 7.32111,0.67828 0,2.1566 6.35402,13.56758 8.92812,16.03373 l 2.71256,2.5988 -2.67705,3.04899 c -1.47238,1.67694 -3.86852,5.40928 -5.32476,8.29403 -2.12701,4.2136 -3.32041,5.5122 -6.06829,6.6032 -5.23455,2.0784 -10.20429,2.5067 -14.71508,1.268 z m 40.72431,-23.14638 c -8.54493,-4.26996 -13.30514,-11.25747 -14.31147,-21.00782 -0.97569,-9.45351 4.25871,-19.57249 12.88117,-24.90145 l 3.19742,-1.97612 4.23245,4.16881 c 4.59445,4.52537 6.02012,4.86534 11.82062,2.8188 4.61629,-1.62872 4.49786,-1.62281 4.50879,-0.225 0.0171,2.19006 4.29421,10.28801 7.15436,13.54553 l 2.89992,3.30282 -3.26204,3.81096 c -4.10121,4.79135 -7.44076,11.57347 -8.49585,17.25383 -0.44828,2.41347 -1.3641,4.73602 -2.03513,5.16121 -0.67103,0.4252 -3.88911,0.7793 -7.15131,0.78687 -4.83189,0.0112 -6.9521,-0.49635 -11.43893,-2.73844 z m 91.01199,-2.32156 c -5.10503,-1.80892 -11.40986,-7.55576 -13.87413,-12.64626 l -2.03307,-4.19978 2.1827,-1.3736 c 6.88285,-4.33147 13.08641,-13.40822 15.14645,-22.16154 l 1.0602,-4.50497 6.93802,0.005 c 3.81591,0.003 8.76718,-0.33058 11.00283,-0.7407 3.9716,-0.72857 4.15225,-0.65736 7.87788,3.10551 6.86691,6.93556 9.05694,17.02498 5.86325,27.01181 -2.03283,6.35676 -8.83975,13.35401 -15.04891,15.46968 -5.36527,1.82814 -14.00987,1.84391 -19.11522,0.0348 z m -42.16062,-23.54749 c -8.57178,-2.96396 -14.55016,-9.23716 -16.79235,-17.62046 l -1.10485,-4.13092 7.60801,-7.99557 c 4.1844,-4.39756 7.83729,-8.04871 8.11752,-8.11367 0.28023,-0.065 1.64379,2.25506 3.03012,5.1556 l 2.5206,5.27371 6.37469,-3.50403 c 3.50607,-1.92722 7.65205,-4.47833 9.21328,-5.66914 l 2.8386,-2.1651 2.6066,3.51736 c 1.43362,1.93455 4.32784,4.82027 6.43159,6.4127 4.39374,3.32584 4.69974,5.01034 2.28568,12.58245 -2.17744,6.8299 -9.83629,14.47774 -16.47202,16.44833 -6.15141,1.82678 -10.98168,1.77131 -16.65747,-0.19126 z m -91.88436,-0.73417 c -11.42543,-4.05205 -18.67756,-18.31099 -15.67619,-30.82211 l 1.09782,-4.57622 3.23046,1.34977 c 8.48657,3.54592 17.69938,5.1961 29.45109,5.27523 6.435,0.0433 13.01625,-0.21485 14.625,-0.57372 4.26314,-0.95102 3.71484,0.53903 -2.34761,6.37976 -5.74818,5.53795 -9.50705,12.00788 -10.9879,18.91283 -0.72048,3.35949 -1.42542,4.55636 -2.91965,4.95707 -3.52202,0.9445 -12.67962,0.44273 -16.47302,-0.90261 z m 53.2526,-27.11955 c -2.4549,-3.72186 -4.96542,-13.10036 -4.98612,-18.62655 l -0.0133,-3.55154 -2.925,2.82782 c -1.60875,1.5553 -5.33171,3.92763 -8.27325,5.27184 -13.0618,5.96891 -39.85241,2.55389 -54.69785,-6.9724 -5.09612,-3.27017 -5.08939,-3.57503 0.335,-15.17416 6.62738,-14.17153 18.56222,-27.20756 29.5611,-32.28861 3.70629,-1.71216 6.4752,-2.29608 11.02034,-2.32405 3.33869,-0.0205 6.07244,-0.13765 6.075,-0.26026 0.003,-0.1226 -1.41123,-2.19373 -3.14177,-4.60251 -3.84056,-5.34578 -6.36994,-11.0096 -7.1952,-16.11159 -0.61261,-3.78732 -0.57662,-3.85542 2.77801,-5.25708 4.80852,-2.00912 15.06885,-2.58154 23.68664,-1.32145 6.61537,0.96729 18.25425,3.65398 21.91536,5.05888 1.10874,0.42546 0.78532,-1.41722 -1.55994,-8.88777 l -2.95867,-9.42451 2.70262,-0.54053 c 17.00855,-3.40171 41.54618,10.0151 55.41916,30.30238 3.3112,4.84216 4.21204,12.89541 2.82832,25.28417 -1.59934,14.31929 -5.7513,25.57133 -12.47188,33.79955 -3.1788,3.8919 -9.49234,9.07338 -11.05576,9.07338 -0.43322,0 -2.19215,-3.08191 -3.90872,-6.84869 -2.39524,-5.25599 -3.45356,-6.72108 -4.55089,-6.3 -0.78641,0.30178 -1.7349,0.54869 -2.10775,0.54869 -0.37284,0 -3.33971,3.54375 -6.59302,7.875 -3.25332,4.33125 -7.67389,9.57152 -9.82349,11.64507 -4.46717,4.30912 -13.81996,10.17991 -16.21765,10.17991 -0.88835,0 -2.61693,-1.51874 -3.84129,-3.37499 z m 21.53868,-60.03563 c 16.32846,-5.73642 30.21459,-10.95634 30.85807,-11.59982 1.54949,-1.5495 0.46245,-4.18954 -1.72505,-4.18954 -1.37795,0 -78.83935,29.24098 -79.76731,30.11144 -0.1354,0.12701 -0.001,0.86949 0.29835,1.64995 0.61148,1.5935 -2.22944,2.49495 50.33594,-15.97203 z m 63.46189,56.3229 c -4.89311,-1.611 -9.72475,-4.65013 -12.79416,-8.04761 -4.49297,-4.97317 -4.81613,-6.59207 -2.15681,-10.80471 3.66106,-5.79948 6.97989,-14.51524 8.62858,-22.65994 1.54767,-7.64566 1.55054,-7.65069 5.06047,-8.85351 4.90476,-1.68082 15.138,-0.93587 19.71192,1.43497 18.96109,9.82825 19.00844,37.15193 0.081,46.75944 -4.88396,2.47909 -14.2596,3.57767 -18.53102,2.17136 z m -4.47467,-69.12752 0.0253,-6.13474 8.74967,-5.57466 c 4.81232,-3.06606 12.25314,-8.60399 16.53516,-12.30651 l 7.78548,-6.73185 5.11497,7.68606 c 2.81324,4.22733 4.77727,7.99532 4.36452,8.37332 -0.41271,0.37799 -4.80042,2.39204 -9.75042,4.47565 -4.95,2.08361 -14.36625,6.61418 -20.925,10.06793 l -11.925,6.27955 0.0253,-6.13475 z"
       id="path4147-2"
       inkscape:connector-curvature="0" />
    <path
       style="fill:#db0000;fill-opacity:1"
       d="m 464.87582,1048.0778 c -11.86121,-3.683 -18.90415,-18.849 -14.09661,-30.3551 l 1.3834,-3.311 4.12473,1.8246 c 7.60861,3.3657 18.26364,3.898 25.01348,1.2497 1.25425,-0.4921 1.575,-0.1421 1.575,1.7187 0,3.5647 3.21633,11.2535 6.32656,15.1236 3.36901,4.1923 3.04208,5.8763 -1.90088,9.7912 -6.34213,5.023 -14.41014,6.4471 -22.42568,3.9582 z m 42.86474,-11.6385 c -8.84561,-3.1531 -15.26474,-12.4641 -15.26474,-22.1417 0,-6.0667 3.59579,-14.2967 7.5,-17.16585 2.1037,-1.54602 2.54259,-1.56322 6.75,-0.26475 2.91622,0.9 7.15287,1.30449 12.03765,1.14928 l 7.53765,-0.2395 1.6795,4.50222 c 0.92372,2.4763 3.75431,7.0771 6.2902,10.2241 4.4582,5.5326 4.57799,5.8291 3.62173,8.9647 -3.8322,12.5658 -17.65123,19.4274 -30.15199,14.9715 z m 45.20948,-22.5897 c -8.4891,-2.6136 -15.9152,-11.8992 -17.51441,-21.90013 -1.01333,-6.33701 1.79127,-14.67217 6.73274,-20.00935 l 4.15744,-4.49037 4.05,1.55864 c 2.77395,1.06756 6.80976,1.58128 12.80901,1.63045 l 8.75902,0.0718 1.07589,2.59745 c 1.68047,4.05702 7.32217,11.11683 11.36975,14.22768 3.22935,2.48199 3.62112,3.16872 3.19577,5.60182 -0.89215,5.10322 -4.87251,12.12551 -8.86478,15.63971 -6.78114,5.969 -16.58822,7.8993 -25.77043,5.0723 z m -88.11872,-5.1948 c -15.43591,-4.2385 -22.26135,-20.0357 -14.67734,-33.97003 3.96119,-7.27802 4.63362,-7.61858 11.41709,-5.78238 3.97298,1.07544 8.03611,1.4566 13.08364,1.22738 5.0129,-0.22765 7.32111,-0.0138 7.32111,0.67828 0,2.1566 6.35402,13.56758 8.92812,16.03373 l 2.71256,2.5988 -2.67705,3.04899 c -1.47238,1.67694 -3.86852,5.40928 -5.32476,8.29403 -2.12701,4.2136 -3.32041,5.5122 -6.06829,6.6032 -5.23455,2.0784 -10.20429,2.5067 -14.71508,1.268 z m 40.72431,-23.14638 c -8.54493,-4.26996 -13.30514,-11.25747 -14.31147,-21.00782 -0.97569,-9.45351 4.25871,-19.57249 12.88117,-24.90145 l 3.19742,-1.97612 4.23245,4.16881 c 4.59445,4.52537 6.02012,4.86534 11.82062,2.8188 4.61629,-1.62872 4.49786,-1.62281 4.50879,-0.225 0.0171,2.19006 4.29421,10.28801 7.15436,13.54553 l 2.89991,3.30282 -3.26203,3.81096 c -4.10121,4.79135 -7.44076,11.57347 -8.49585,17.25383 -0.44828,2.41347 -1.3641,4.73602 -2.03513,5.16121 -0.67103,0.4252 -3.88911,0.7793 -7.15131,0.78687 -4.83189,0.0112 -6.9521,-0.49635 -11.43893,-2.73844 z m 91.01199,-2.32156 c -5.10503,-1.80892 -11.40986,-7.55576 -13.87413,-12.64626 l -2.03307,-4.19978 2.1827,-1.3736 c 6.88285,-4.33147 13.08641,-13.40822 15.14645,-22.16154 l 1.0602,-4.50497 6.93802,0.005 c 3.81591,0.003 8.76718,-0.33058 11.00283,-0.7407 3.9716,-0.72857 4.15225,-0.65736 7.87788,3.10551 6.86691,6.93556 9.05694,17.02498 5.86325,27.01181 -2.03283,6.35676 -8.83975,13.35401 -15.04891,15.46968 -5.36527,1.82814 -14.00987,1.84391 -19.11522,0.0348 z M 554.407,959.63937 c -8.57178,-2.96396 -14.55017,-9.23716 -16.79236,-17.62046 l -1.10485,-4.13092 7.60802,-7.99557 c 4.1844,-4.39756 7.83729,-8.04871 8.11752,-8.11367 0.28023,-0.065 1.64379,2.25506 3.03012,5.1556 l 2.5206,5.27371 6.37469,-3.50403 c 3.50607,-1.92722 7.65205,-4.47833 9.21328,-5.66914 l 2.8386,-2.1651 2.6066,3.51736 c 1.43362,1.93455 4.32784,4.82027 6.43159,6.4127 4.39374,3.32584 4.69974,5.01034 2.28568,12.58245 -2.17744,6.8299 -9.83629,14.47774 -16.47202,16.44833 -6.15141,1.82678 -10.98168,1.77131 -16.65747,-0.19126 z m -91.88436,-0.73417 c -11.42544,-4.05205 -18.67756,-18.31099 -15.6762,-30.82211 l 1.09782,-4.57622 3.23047,1.34977 c 8.48657,3.54592 17.69938,5.1961 29.45109,5.27523 6.435,0.0433 13.01625,-0.21485 14.625,-0.57372 4.26314,-0.95102 3.71484,0.53903 -2.34761,6.37976 -5.74818,5.53795 -9.50705,12.00788 -10.9879,18.91283 -0.72048,3.35949 -1.42542,4.55636 -2.91965,4.95707 -3.52202,0.9445 -12.67962,0.44273 -16.47302,-0.90261 z m 53.2526,-27.11955 c -2.4549,-3.72186 -4.96542,-13.10036 -4.98612,-18.62655 l -0.0133,-3.55154 -2.925,2.82782 c -1.60875,1.5553 -5.33171,3.92763 -8.27325,5.27184 -13.0618,5.96891 -39.85241,2.55389 -54.69785,-6.9724 -5.09612,-3.27017 -5.08939,-3.57503 0.335,-15.17416 6.62738,-14.17153 18.56222,-27.20756 29.5611,-32.28861 3.70629,-1.71216 6.4752,-2.29608 11.02034,-2.32405 3.33869,-0.0205 6.07244,-0.13765 6.075,-0.26026 0.003,-0.1226 -1.41123,-2.19373 -3.14177,-4.60251 -3.84056,-5.34578 -6.36994,-11.0096 -7.1952,-16.11159 -0.61261,-3.78732 -0.57662,-3.85542 2.77801,-5.25708 4.80852,-2.00912 15.06885,-2.58154 23.68664,-1.32145 6.61537,0.96729 18.25425,3.65398 21.91536,5.05888 1.10874,0.42546 0.78532,-1.41722 -1.55994,-8.88777 l -2.95867,-9.42451 2.70262,-0.54053 c 17.00855,-3.40171 41.54618,10.0151 55.41916,30.30238 3.3112,4.84216 4.21204,12.89541 2.82832,25.28417 -1.59934,14.31929 -5.7513,25.57133 -12.47188,33.79955 -3.1788,3.8919 -9.49234,9.07338 -11.05576,9.07338 -0.43322,0 -2.19215,-3.08191 -3.90872,-6.84869 -2.39524,-5.25599 -3.45356,-6.72108 -4.55089,-6.3 -0.78641,0.30178 -1.7349,0.54869 -2.10775,0.54869 -0.37284,0 -3.33971,3.54375 -6.59302,7.875 -3.25332,4.33125 -7.6739,9.57152 -9.8235,11.64507 -4.46716,4.30912 -13.81995,10.17991 -16.21764,10.17991 -0.88835,0 -2.61693,-1.51874 -3.84129,-3.37499 z m 21.53867,-60.03563 c 16.32847,-5.73642 30.2146,-10.95634 30.85808,-11.59982 1.54949,-1.5495 0.46245,-4.18954 -1.72505,-4.18954 -1.37795,0 -78.83935,29.24098 -79.76731,30.11144 -0.1354,0.12701 -10e-4,0.86949 0.29835,1.64995 0.61148,1.5935 -2.22944,2.49495 50.33593,-15.97203 z m 63.4619,56.3229 c -4.89311,-1.611 -9.72475,-4.65013 -12.79416,-8.04761 -4.49297,-4.97317 -4.81613,-6.59207 -2.15681,-10.80471 3.66106,-5.79948 6.97989,-14.51524 8.62858,-22.65994 1.54767,-7.64566 1.55054,-7.65069 5.06047,-8.85351 4.90476,-1.68082 15.138,-0.93587 19.71192,1.43497 18.96109,9.82825 19.00844,37.15193 0.081,46.75944 -4.88396,2.47909 -14.2596,3.57767 -18.53102,2.17136 z m -4.47467,-69.12752 0.0253,-6.13474 8.74967,-5.57466 c 4.81232,-3.06606 12.25314,-8.60399 16.53516,-12.30651 l 7.78548,-6.73185 5.11497,7.68606 c 2.81324,4.22733 4.77727,7.99532 4.36452,8.37332 -0.41271,0.37799 -4.80042,2.39204 -9.75042,4.47565 -4.95,2.08361 -14.36625,6.61418 -20.925,10.06793 l -11.925,6.27955 0.0253,-6.13475 z"
       id="path4147-7"
       inkscape:connector-curvature="0" />
    <path
       style="fill:#db0000;fill-opacity:1"
       d="m 683.78154,1048.0777 c -11.86121,-3.683 -18.90415,-18.849 -14.09661,-30.355 l 1.3834,-3.311 4.12473,1.8246 c 7.60861,3.3657 18.26364,3.898 25.01348,1.2497 1.25425,-0.4921 1.575,-0.1421 1.575,1.7187 0,3.5647 3.21633,11.2534 6.32656,15.1236 3.36901,4.1923 3.04208,5.8763 -1.90088,9.7912 -6.34213,5.023 -14.41014,6.4471 -22.42568,3.9582 z m 42.86474,-11.6384 c -8.84561,-3.1531 -15.26474,-12.4641 -15.26474,-22.1417 0,-6.0667 3.59579,-14.2967 7.5,-17.16586 2.1037,-1.546 2.54259,-1.5632 6.75,-0.26473 2.91622,0.90003 7.15287,1.30453 12.03765,1.14923 l 7.53765,-0.2395 1.6795,4.50226 c 0.92372,2.4763 3.75431,7.0771 6.2902,10.2241 4.4582,5.5326 4.57799,5.8291 3.62173,8.9647 -3.8322,12.5658 -17.65123,19.4274 -30.15199,14.9715 z m 45.20948,-22.5897 c -8.4891,-2.6136 -15.9152,-11.8992 -17.51441,-21.90012 -1.01333,-6.33701 1.79127,-14.67217 6.73274,-20.00935 l 4.15744,-4.49037 4.05,1.55864 c 2.77395,1.06756 6.80976,1.58128 12.80901,1.63045 l 8.75902,0.0718 1.07589,2.59745 c 1.68047,4.05702 7.32217,11.11683 11.36975,14.22768 3.22935,2.48199 3.62112,3.16872 3.19577,5.60182 -0.89215,5.10324 -4.87251,12.1255 -8.86478,15.6397 -6.78114,5.969 -16.58822,7.8993 -25.77043,5.0723 z m -88.11872,-5.1948 c -15.43591,-4.2385 -22.26135,-20.03569 -14.67734,-33.97002 3.96119,-7.27802 4.63362,-7.61858 11.41709,-5.78238 3.97298,1.07544 8.03611,1.4566 13.08364,1.22738 5.0129,-0.22765 7.32111,-0.0138 7.32111,0.67828 0,2.1566 6.35402,13.56758 8.92812,16.03373 l 2.71256,2.5988 -2.67705,3.04899 c -1.47238,1.67694 -3.86852,5.40926 -5.32476,8.29402 -2.12701,4.2136 -3.32041,5.5122 -6.06829,6.6032 -5.23455,2.0784 -10.20429,2.5067 -14.71508,1.268 z m 40.72431,-23.14637 c -8.54493,-4.26996 -13.30514,-11.25747 -14.31147,-21.00782 -0.97569,-9.45351 4.25871,-19.57249 12.88117,-24.90145 l 3.19742,-1.97612 4.23245,4.16881 c 4.59445,4.52537 6.02012,4.86534 11.82062,2.8188 4.61629,-1.62872 4.49786,-1.62281 4.50879,-0.225 0.0171,2.19006 4.29421,10.28801 7.15436,13.54553 l 2.89991,3.30282 -3.26203,3.81096 c -4.10121,4.79135 -7.44076,11.57347 -8.49585,17.25383 -0.44828,2.41347 -1.3641,4.73602 -2.03513,5.16121 -0.67103,0.4252 -3.88911,0.7793 -7.15131,0.78687 -4.83189,0.0112 -6.9521,-0.49635 -11.43893,-2.73844 z m 91.01199,-2.32156 c -5.10503,-1.80892 -11.40986,-7.55576 -13.87413,-12.64626 l -2.03307,-4.19978 2.1827,-1.3736 c 6.88285,-4.33147 13.08641,-13.40822 15.14645,-22.16154 l 1.0602,-4.50497 6.93802,0.005 c 3.81591,0.003 8.76718,-0.33058 11.00283,-0.7407 3.9716,-0.72857 4.15225,-0.65736 7.87788,3.10551 6.86691,6.93556 9.05694,17.02498 5.86325,27.01181 -2.03283,6.35676 -8.83975,13.35401 -15.04891,15.46968 -5.36527,1.82814 -14.00987,1.84391 -19.11522,0.0348 z m -42.16062,-23.54749 c -8.57178,-2.96396 -14.55017,-9.23716 -16.79236,-17.62046 l -1.10485,-4.13092 7.60802,-7.99557 c 4.1844,-4.39756 7.83729,-8.04871 8.11752,-8.11367 0.28023,-0.065 1.64379,2.25506 3.03012,5.1556 l 2.5206,5.27371 6.37469,-3.50403 c 3.50607,-1.92722 7.65205,-4.47833 9.21328,-5.66914 l 2.8386,-2.1651 2.6066,3.51736 c 1.43362,1.93455 4.32784,4.82027 6.43159,6.4127 4.39374,3.32584 4.69974,5.01034 2.28568,12.58245 -2.17744,6.8299 -9.83629,14.47774 -16.47202,16.44833 -6.15141,1.82678 -10.98168,1.77131 -16.65747,-0.19126 z m -91.88436,-0.73417 c -11.42544,-4.05205 -18.67756,-18.31099 -15.6762,-30.82211 l 1.09782,-4.57622 3.23047,1.34977 c 8.48657,3.54592 17.69938,5.1961 29.45109,5.27523 6.435,0.0433 13.01625,-0.21485 14.625,-0.57372 4.26314,-0.95102 3.71484,0.53903 -2.34761,6.37976 -5.74818,5.53795 -9.50705,12.00788 -10.9879,18.91283 -0.72048,3.35949 -1.42542,4.55636 -2.91965,4.95707 -3.52202,0.9445 -12.67962,0.44273 -16.47302,-0.90261 z m 53.2526,-27.11955 c -2.4549,-3.72186 -4.96542,-13.10036 -4.98612,-18.62655 l -0.0133,-3.55154 -2.925,2.82782 c -1.60875,1.5553 -5.33171,3.92763 -8.27325,5.27184 -13.0618,5.96891 -39.85241,2.55389 -54.69785,-6.9724 -5.09612,-3.27017 -5.08939,-3.57503 0.335,-15.17416 6.62738,-14.17153 18.56222,-27.20756 29.5611,-32.28861 3.70629,-1.71216 6.4752,-2.29608 11.02034,-2.32405 3.33869,-0.0205 6.07244,-0.13765 6.075,-0.26026 0.003,-0.1226 -1.41123,-2.19373 -3.14177,-4.60251 -3.84056,-5.34578 -6.36994,-11.0096 -7.1952,-16.11159 -0.61261,-3.78732 -0.57662,-3.85542 2.77801,-5.25708 4.80852,-2.00912 15.06885,-2.58154 23.68664,-1.32145 6.61537,0.96729 18.25425,3.65398 21.91536,5.05888 1.10874,0.42546 0.78532,-1.41722 -1.55994,-8.88777 l -2.95867,-9.42451 2.70262,-0.54053 c 17.00855,-3.40171 41.54618,10.0151 55.41916,30.30238 3.3112,4.84216 4.21204,12.89541 2.82832,25.28417 -1.59934,14.31929 -5.7513,25.57133 -12.47188,33.79955 -3.1788,3.8919 -9.49234,9.07338 -11.05576,9.07338 -0.43322,0 -2.19215,-3.08191 -3.90872,-6.84869 -2.39524,-5.25599 -3.45356,-6.72108 -4.55089,-6.3 -0.78641,0.30178 -1.7349,0.54869 -2.10775,0.54869 -0.37284,0 -3.33971,3.54375 -6.59302,7.875 -3.25332,4.33125 -7.6739,9.57152 -9.8235,11.64507 -4.46716,4.30912 -13.81995,10.17991 -16.21764,10.17991 -0.88835,0 -2.61693,-1.51874 -3.84129,-3.37499 z m 21.53867,-60.03563 c 16.32847,-5.73642 30.2146,-10.95634 30.85808,-11.59982 1.54949,-1.5495 0.46245,-4.18954 -1.72505,-4.18954 -1.37795,0 -78.83935,29.24098 -79.76731,30.11144 -0.1354,0.12701 -10e-4,0.86949 0.29835,1.64995 0.61148,1.5935 -2.22944,2.49495 50.33593,-15.97203 z m 63.4619,56.3229 c -4.89311,-1.611 -9.72475,-4.65013 -12.79416,-8.04761 -4.49297,-4.97317 -4.81613,-6.59207 -2.15681,-10.80471 3.66106,-5.79948 6.97989,-14.51524 8.62858,-22.65994 1.54767,-7.64566 1.55054,-7.65069 5.06047,-8.85351 4.90476,-1.68082 15.138,-0.93587 19.71192,1.43497 18.96109,9.82825 19.00844,37.15193 0.081,46.75944 -4.88396,2.47909 -14.2596,3.57767 -18.53102,2.17136 z m -4.47467,-69.12752 0.0253,-6.13474 8.74967,-5.57466 c 4.81232,-3.06606 12.25314,-8.60399 16.53516,-12.30651 l 7.78548,-6.73185 5.11497,7.68606 c 2.81324,4.22733 4.77727,7.99532 4.36452,8.37332 -0.41271,0.37799 -4.80042,2.39204 -9.75042,4.47565 -4.95,2.08361 -14.36625,6.61418 -20.925,10.06793 l -11.925,6.27955 0.0253,-6.13475 z"
       id="path4147-0"
       inkscape:connector-curvature="0" />
  </g>
</svg>
